<mxfile host="app.diagrams.net" modified="2022-03-23T09:24:13.073Z" agent="5.0 (Windows NT 10.0; Win64; x64) AppleWebKit/537.36 (KHTML, like Gecko) Chrome/99.0.4844.82 Safari/537.36" etag="YG_X0aGbcnoyUQVFKb8l" version="17.1.5" type="github">
  <diagram id="C5RBs43oDa-KdzZeNtuy" name="Page-1">
    <mxGraphModel dx="868" dy="450" grid="1" gridSize="10" guides="1" tooltips="1" connect="1" arrows="1" fold="1" page="1" pageScale="1" pageWidth="827" pageHeight="1169" math="0" shadow="0">
      <root>
        <mxCell id="WIyWlLk6GJQsqaUBKTNV-0" />
        <mxCell id="WIyWlLk6GJQsqaUBKTNV-1" parent="WIyWlLk6GJQsqaUBKTNV-0" />
        <mxCell id="WIyWlLk6GJQsqaUBKTNV-11" value="COVID TRACKING SYSTEM" style="rounded=1;whiteSpace=wrap;html=1;fontSize=12;glass=0;strokeWidth=1;shadow=0;" parent="WIyWlLk6GJQsqaUBKTNV-1" vertex="1">
          <mxGeometry x="354" y="50" width="120" height="40" as="geometry" />
        </mxCell>
        <mxCell id="mOqIG3DoyQLuVPcFchnm-1" value="&lt;div style=&quot;text-align: center&quot;&gt;&lt;b&gt;STATE NAME&lt;/b&gt;&lt;/div&gt;&lt;i&gt;1.Tamil Nadu&lt;br&gt;&lt;/i&gt;2.Kerala&lt;br&gt;3.Karnataka&lt;br&gt;4.Andra Pradesh&lt;br&gt;The number indicates the state name in terms of choice" style="whiteSpace=wrap;html=1;aspect=fixed;fontSize=12;align=left;" vertex="1" parent="WIyWlLk6GJQsqaUBKTNV-1">
          <mxGeometry x="344" y="130" width="140" height="140" as="geometry" />
        </mxCell>
        <mxCell id="mOqIG3DoyQLuVPcFchnm-3" value="" style="shape=doubleArrow;direction=south;whiteSpace=wrap;html=1;fontSize=12;" vertex="1" parent="WIyWlLk6GJQsqaUBKTNV-1">
          <mxGeometry x="384" y="90" width="60" height="40" as="geometry" />
        </mxCell>
        <mxCell id="mOqIG3DoyQLuVPcFchnm-4" value="If Choice&amp;lt;=4" style="rhombus;whiteSpace=wrap;html=1;fontSize=12;" vertex="1" parent="WIyWlLk6GJQsqaUBKTNV-1">
          <mxGeometry x="374" y="290" width="80" height="80" as="geometry" />
        </mxCell>
        <mxCell id="mOqIG3DoyQLuVPcFchnm-5" value="" style="line;strokeWidth=4;direction=south;html=1;perimeter=backbonePerimeter;points=[];outlineConnect=0;fontSize=12;" vertex="1" parent="WIyWlLk6GJQsqaUBKTNV-1">
          <mxGeometry x="409" y="270" width="10" height="20" as="geometry" />
        </mxCell>
        <mxCell id="mOqIG3DoyQLuVPcFchnm-6" value="" style="line;strokeWidth=2;direction=south;html=1;fontSize=12;" vertex="1" parent="WIyWlLk6GJQsqaUBKTNV-1">
          <mxGeometry x="409" y="370" width="10" height="30" as="geometry" />
        </mxCell>
        <mxCell id="mOqIG3DoyQLuVPcFchnm-7" value="COVID DETAILS" style="whiteSpace=wrap;html=1;aspect=fixed;fontSize=12;" vertex="1" parent="WIyWlLk6GJQsqaUBKTNV-1">
          <mxGeometry x="374" y="400" width="80" height="80" as="geometry" />
        </mxCell>
        <mxCell id="mOqIG3DoyQLuVPcFchnm-8" value="Yes" style="text;html=1;align=center;verticalAlign=middle;resizable=0;points=[];autosize=1;strokeColor=none;fillColor=none;fontSize=12;" vertex="1" parent="WIyWlLk6GJQsqaUBKTNV-1">
          <mxGeometry x="410" y="370" width="40" height="20" as="geometry" />
        </mxCell>
        <mxCell id="mOqIG3DoyQLuVPcFchnm-9" value="Print the Total cases, Active Cases,Recovered Cases, Death Cases" style="shape=parallelogram;perimeter=parallelogramPerimeter;whiteSpace=wrap;html=1;fixedSize=1;fontSize=12;align=center;" vertex="1" parent="WIyWlLk6GJQsqaUBKTNV-1">
          <mxGeometry x="312" y="500" width="203" height="85" as="geometry" />
        </mxCell>
        <mxCell id="mOqIG3DoyQLuVPcFchnm-10" value="" style="line;strokeWidth=2;direction=south;html=1;fontSize=12;" vertex="1" parent="WIyWlLk6GJQsqaUBKTNV-1">
          <mxGeometry x="409" y="480" width="10" height="20" as="geometry" />
        </mxCell>
        <mxCell id="mOqIG3DoyQLuVPcFchnm-11" value="Yes" style="text;html=1;align=center;verticalAlign=middle;resizable=0;points=[];autosize=1;strokeColor=none;fillColor=none;fontSize=12;" vertex="1" parent="WIyWlLk6GJQsqaUBKTNV-1">
          <mxGeometry x="410" y="480" width="40" height="20" as="geometry" />
        </mxCell>
        <mxCell id="mOqIG3DoyQLuVPcFchnm-12" value="Enter the valid choice" style="rounded=0;whiteSpace=wrap;html=1;fontSize=12;" vertex="1" parent="WIyWlLk6GJQsqaUBKTNV-1">
          <mxGeometry x="354" y="620" width="120" height="60" as="geometry" />
        </mxCell>
        <mxCell id="mOqIG3DoyQLuVPcFchnm-14" value="" style="edgeStyle=elbowEdgeStyle;elbow=vertical;endArrow=classic;html=1;rounded=0;fontSize=12;" edge="1" parent="WIyWlLk6GJQsqaUBKTNV-1">
          <mxGeometry width="50" height="50" relative="1" as="geometry">
            <mxPoint x="280" y="630" as="sourcePoint" />
            <mxPoint x="370" y="330" as="targetPoint" />
            <Array as="points">
              <mxPoint x="240" y="350" />
            </Array>
          </mxGeometry>
        </mxCell>
        <mxCell id="mOqIG3DoyQLuVPcFchnm-17" value="" style="line;strokeWidth=2;html=1;fontSize=12;" vertex="1" parent="WIyWlLk6GJQsqaUBKTNV-1">
          <mxGeometry x="280" y="470" width="74" height="330" as="geometry" />
        </mxCell>
        <mxCell id="mOqIG3DoyQLuVPcFchnm-18" value="NO" style="text;html=1;align=center;verticalAlign=middle;resizable=0;points=[];autosize=1;strokeColor=none;fillColor=none;fontSize=12;" vertex="1" parent="WIyWlLk6GJQsqaUBKTNV-1">
          <mxGeometry x="325" y="330" width="30" height="20" as="geometry" />
        </mxCell>
        <mxCell id="mOqIG3DoyQLuVPcFchnm-19" value="COVID TRACKING SYSTEM" style="rounded=1;whiteSpace=wrap;html=1;fontSize=12;glass=0;strokeWidth=1;shadow=0;" vertex="1" parent="WIyWlLk6GJQsqaUBKTNV-1">
          <mxGeometry x="354" y="740" width="120" height="40" as="geometry" />
        </mxCell>
        <mxCell id="mOqIG3DoyQLuVPcFchnm-20" value="&lt;div style=&quot;text-align: center&quot;&gt;&lt;b&gt;STATE NAME&lt;/b&gt;&lt;/div&gt;&lt;i&gt;1.Tamil Nadu&lt;br&gt;&lt;/i&gt;2.Kerala&lt;br&gt;3.Karnataka&lt;br&gt;4.Andra Pradesh&lt;br&gt;The number indicates the state name in terms of choice" style="whiteSpace=wrap;html=1;aspect=fixed;fontSize=12;align=left;" vertex="1" parent="WIyWlLk6GJQsqaUBKTNV-1">
          <mxGeometry x="344" y="820" width="140" height="140" as="geometry" />
        </mxCell>
        <mxCell id="mOqIG3DoyQLuVPcFchnm-21" value="" style="shape=doubleArrow;direction=south;whiteSpace=wrap;html=1;fontSize=12;" vertex="1" parent="WIyWlLk6GJQsqaUBKTNV-1">
          <mxGeometry x="384" y="780" width="60" height="40" as="geometry" />
        </mxCell>
        <mxCell id="mOqIG3DoyQLuVPcFchnm-22" value="If Choice&amp;lt;=4" style="rhombus;whiteSpace=wrap;html=1;fontSize=12;" vertex="1" parent="WIyWlLk6GJQsqaUBKTNV-1">
          <mxGeometry x="374" y="980" width="80" height="80" as="geometry" />
        </mxCell>
        <mxCell id="mOqIG3DoyQLuVPcFchnm-23" value="" style="line;strokeWidth=4;direction=south;html=1;perimeter=backbonePerimeter;points=[];outlineConnect=0;fontSize=12;" vertex="1" parent="WIyWlLk6GJQsqaUBKTNV-1">
          <mxGeometry x="409" y="960" width="10" height="20" as="geometry" />
        </mxCell>
        <mxCell id="mOqIG3DoyQLuVPcFchnm-24" value="" style="line;strokeWidth=2;direction=south;html=1;fontSize=12;" vertex="1" parent="WIyWlLk6GJQsqaUBKTNV-1">
          <mxGeometry x="409" y="1060" width="10" height="30" as="geometry" />
        </mxCell>
        <mxCell id="mOqIG3DoyQLuVPcFchnm-25" value="VACCINATED DETAILS" style="whiteSpace=wrap;html=1;aspect=fixed;fontSize=12;" vertex="1" parent="WIyWlLk6GJQsqaUBKTNV-1">
          <mxGeometry x="374" y="1090" width="80" height="80" as="geometry" />
        </mxCell>
        <mxCell id="mOqIG3DoyQLuVPcFchnm-26" value="Yes" style="text;html=1;align=center;verticalAlign=middle;resizable=0;points=[];autosize=1;strokeColor=none;fillColor=none;fontSize=12;" vertex="1" parent="WIyWlLk6GJQsqaUBKTNV-1">
          <mxGeometry x="410" y="1060" width="40" height="20" as="geometry" />
        </mxCell>
        <mxCell id="mOqIG3DoyQLuVPcFchnm-27" value="Print the First dosage count and second dosage count" style="shape=parallelogram;perimeter=parallelogramPerimeter;whiteSpace=wrap;html=1;fixedSize=1;fontSize=12;align=center;" vertex="1" parent="WIyWlLk6GJQsqaUBKTNV-1">
          <mxGeometry x="312" y="1190" width="203" height="85" as="geometry" />
        </mxCell>
        <mxCell id="mOqIG3DoyQLuVPcFchnm-28" value="" style="line;strokeWidth=2;direction=south;html=1;fontSize=12;" vertex="1" parent="WIyWlLk6GJQsqaUBKTNV-1">
          <mxGeometry x="409" y="1170" width="10" height="20" as="geometry" />
        </mxCell>
        <mxCell id="mOqIG3DoyQLuVPcFchnm-29" value="Yes" style="text;html=1;align=center;verticalAlign=middle;resizable=0;points=[];autosize=1;strokeColor=none;fillColor=none;fontSize=12;" vertex="1" parent="WIyWlLk6GJQsqaUBKTNV-1">
          <mxGeometry x="410" y="1170" width="40" height="20" as="geometry" />
        </mxCell>
        <mxCell id="mOqIG3DoyQLuVPcFchnm-30" value="Enter the valid choice" style="rounded=0;whiteSpace=wrap;html=1;fontSize=12;" vertex="1" parent="WIyWlLk6GJQsqaUBKTNV-1">
          <mxGeometry x="354" y="1310" width="120" height="60" as="geometry" />
        </mxCell>
        <mxCell id="mOqIG3DoyQLuVPcFchnm-31" value="" style="edgeStyle=elbowEdgeStyle;elbow=vertical;endArrow=classic;html=1;rounded=0;fontSize=12;" edge="1" parent="WIyWlLk6GJQsqaUBKTNV-1">
          <mxGeometry width="50" height="50" relative="1" as="geometry">
            <mxPoint x="280" y="1320" as="sourcePoint" />
            <mxPoint x="370" y="1020" as="targetPoint" />
            <Array as="points">
              <mxPoint x="240" y="1040" />
            </Array>
          </mxGeometry>
        </mxCell>
        <mxCell id="mOqIG3DoyQLuVPcFchnm-32" value="NO" style="text;html=1;align=center;verticalAlign=middle;resizable=0;points=[];autosize=1;strokeColor=none;fillColor=none;fontSize=12;" vertex="1" parent="WIyWlLk6GJQsqaUBKTNV-1">
          <mxGeometry x="325" y="1020" width="30" height="20" as="geometry" />
        </mxCell>
        <mxCell id="mOqIG3DoyQLuVPcFchnm-33" value="&amp;nbsp; &amp;nbsp; &amp;nbsp; &amp;nbsp; &amp;nbsp; &amp;nbsp; &amp;nbsp; &amp;nbsp; &amp;nbsp; &amp;nbsp; &amp;nbsp; &amp;nbsp; &amp;nbsp; COVID DETAILS RELATED FLOW CHART" style="text;html=1;align=center;verticalAlign=middle;resizable=0;points=[];autosize=1;strokeColor=none;fillColor=none;fontSize=12;" vertex="1" parent="WIyWlLk6GJQsqaUBKTNV-1">
          <mxGeometry x="225" y="10" width="330" height="20" as="geometry" />
        </mxCell>
        <mxCell id="mOqIG3DoyQLuVPcFchnm-34" value="&amp;nbsp; &amp;nbsp; &amp;nbsp; &amp;nbsp; &amp;nbsp; &amp;nbsp; &amp;nbsp;VACCINATED DETAILS RELATED FLOW CHART" style="text;html=1;align=center;verticalAlign=middle;resizable=0;points=[];autosize=1;strokeColor=none;fillColor=none;fontSize=12;" vertex="1" parent="WIyWlLk6GJQsqaUBKTNV-1">
          <mxGeometry x="235" y="700" width="330" height="20" as="geometry" />
        </mxCell>
        <mxCell id="mOqIG3DoyQLuVPcFchnm-37" value="" style="line;strokeWidth=2;html=1;fontSize=12;" vertex="1" parent="WIyWlLk6GJQsqaUBKTNV-1">
          <mxGeometry x="280" y="1320" width="70" height="10" as="geometry" />
        </mxCell>
        <mxCell id="mOqIG3DoyQLuVPcFchnm-38" value="COVID TRACKING SYSTEM" style="rounded=1;whiteSpace=wrap;html=1;fontSize=12;glass=0;strokeWidth=1;shadow=0;" vertex="1" parent="WIyWlLk6GJQsqaUBKTNV-1">
          <mxGeometry x="346.5" y="1439" width="120" height="40" as="geometry" />
        </mxCell>
        <mxCell id="mOqIG3DoyQLuVPcFchnm-39" value="&lt;div style=&quot;text-align: center&quot;&gt;&lt;b&gt;STATE NAME&lt;/b&gt;&lt;/div&gt;&lt;i&gt;1.Tamil Nadu&lt;br&gt;&lt;/i&gt;2.Kerala&lt;br&gt;3.Karnataka&lt;br&gt;4.Andra Pradesh&lt;br&gt;The number indicates the state name in terms of choice" style="whiteSpace=wrap;html=1;aspect=fixed;fontSize=12;align=left;" vertex="1" parent="WIyWlLk6GJQsqaUBKTNV-1">
          <mxGeometry x="336.5" y="1519" width="140" height="140" as="geometry" />
        </mxCell>
        <mxCell id="mOqIG3DoyQLuVPcFchnm-40" value="" style="shape=doubleArrow;direction=south;whiteSpace=wrap;html=1;fontSize=12;" vertex="1" parent="WIyWlLk6GJQsqaUBKTNV-1">
          <mxGeometry x="376.5" y="1479" width="60" height="40" as="geometry" />
        </mxCell>
        <mxCell id="mOqIG3DoyQLuVPcFchnm-41" value="If Choice&amp;lt;=4" style="rhombus;whiteSpace=wrap;html=1;fontSize=12;" vertex="1" parent="WIyWlLk6GJQsqaUBKTNV-1">
          <mxGeometry x="366.5" y="1679" width="80" height="80" as="geometry" />
        </mxCell>
        <mxCell id="mOqIG3DoyQLuVPcFchnm-42" value="" style="line;strokeWidth=4;direction=south;html=1;perimeter=backbonePerimeter;points=[];outlineConnect=0;fontSize=12;" vertex="1" parent="WIyWlLk6GJQsqaUBKTNV-1">
          <mxGeometry x="401.5" y="1659" width="10" height="20" as="geometry" />
        </mxCell>
        <mxCell id="mOqIG3DoyQLuVPcFchnm-43" value="" style="line;strokeWidth=2;direction=south;html=1;fontSize=12;" vertex="1" parent="WIyWlLk6GJQsqaUBKTNV-1">
          <mxGeometry x="401.5" y="1759" width="10" height="30" as="geometry" />
        </mxCell>
        <mxCell id="mOqIG3DoyQLuVPcFchnm-44" value="COVID STATUS" style="whiteSpace=wrap;html=1;aspect=fixed;fontSize=12;" vertex="1" parent="WIyWlLk6GJQsqaUBKTNV-1">
          <mxGeometry x="366.5" y="1880" width="80" height="80" as="geometry" />
        </mxCell>
        <mxCell id="mOqIG3DoyQLuVPcFchnm-45" value="Yes" style="text;html=1;align=center;verticalAlign=middle;resizable=0;points=[];autosize=1;strokeColor=none;fillColor=none;fontSize=12;" vertex="1" parent="WIyWlLk6GJQsqaUBKTNV-1">
          <mxGeometry x="402.5" y="1759" width="40" height="20" as="geometry" />
        </mxCell>
        <mxCell id="mOqIG3DoyQLuVPcFchnm-46" value="Displays the Total cases, Active Cases,Recovered Cases, Death Cases" style="shape=parallelogram;perimeter=parallelogramPerimeter;whiteSpace=wrap;html=1;fixedSize=1;fontSize=12;align=center;" vertex="1" parent="WIyWlLk6GJQsqaUBKTNV-1">
          <mxGeometry x="298.5" y="1970" width="203" height="85" as="geometry" />
        </mxCell>
        <mxCell id="mOqIG3DoyQLuVPcFchnm-49" value="Enter the valid choice" style="rounded=0;whiteSpace=wrap;html=1;fontSize=12;" vertex="1" parent="WIyWlLk6GJQsqaUBKTNV-1">
          <mxGeometry x="346.5" y="2080" width="120" height="60" as="geometry" />
        </mxCell>
        <mxCell id="mOqIG3DoyQLuVPcFchnm-52" value="&amp;nbsp; &amp;nbsp; &amp;nbsp; &amp;nbsp; &amp;nbsp; &amp;nbsp; &amp;nbsp; Covid Status Related Flow Chart" style="text;html=1;align=center;verticalAlign=middle;resizable=0;points=[];autosize=1;strokeColor=none;fillColor=none;fontSize=12;" vertex="1" parent="WIyWlLk6GJQsqaUBKTNV-1">
          <mxGeometry x="270" y="1390" width="240" height="20" as="geometry" />
        </mxCell>
        <mxCell id="mOqIG3DoyQLuVPcFchnm-53" value="If Total cases!=0" style="rhombus;whiteSpace=wrap;html=1;fontSize=12;" vertex="1" parent="WIyWlLk6GJQsqaUBKTNV-1">
          <mxGeometry x="366.5" y="1789" width="80" height="80" as="geometry" />
        </mxCell>
        <mxCell id="mOqIG3DoyQLuVPcFchnm-54" value="" style="line;strokeWidth=2;direction=south;html=1;fontSize=12;" vertex="1" parent="WIyWlLk6GJQsqaUBKTNV-1">
          <mxGeometry x="400" y="1960" width="10" height="10" as="geometry" />
        </mxCell>
        <mxCell id="mOqIG3DoyQLuVPcFchnm-55" value="" style="line;strokeWidth=2;direction=south;html=1;fontSize=12;" vertex="1" parent="WIyWlLk6GJQsqaUBKTNV-1">
          <mxGeometry x="404" y="1869" width="10" height="11" as="geometry" />
        </mxCell>
        <mxCell id="mOqIG3DoyQLuVPcFchnm-56" value="Yes" style="text;html=1;align=center;verticalAlign=middle;resizable=0;points=[];autosize=1;strokeColor=none;fillColor=none;fontSize=12;" vertex="1" parent="WIyWlLk6GJQsqaUBKTNV-1">
          <mxGeometry x="410" y="1860" width="40" height="20" as="geometry" />
        </mxCell>
        <mxCell id="mOqIG3DoyQLuVPcFchnm-57" value="Covid Details Yet not be filled" style="rounded=0;whiteSpace=wrap;html=1;fontSize=12;" vertex="1" parent="WIyWlLk6GJQsqaUBKTNV-1">
          <mxGeometry x="345" y="2170" width="120" height="60" as="geometry" />
        </mxCell>
        <mxCell id="mOqIG3DoyQLuVPcFchnm-59" value="" style="edgeStyle=elbowEdgeStyle;elbow=horizontal;endArrow=classic;html=1;rounded=0;fontSize=12;entryX=0;entryY=0.5;entryDx=0;entryDy=0;exitX=0;exitY=0.25;exitDx=0;exitDy=0;" edge="1" parent="WIyWlLk6GJQsqaUBKTNV-1" source="mOqIG3DoyQLuVPcFchnm-57" target="mOqIG3DoyQLuVPcFchnm-53">
          <mxGeometry width="50" height="50" relative="1" as="geometry">
            <mxPoint x="380" y="2030" as="sourcePoint" />
            <mxPoint x="430" y="1980" as="targetPoint" />
            <Array as="points">
              <mxPoint x="250" y="2010" />
            </Array>
          </mxGeometry>
        </mxCell>
        <mxCell id="mOqIG3DoyQLuVPcFchnm-60" value="No" style="text;html=1;align=center;verticalAlign=middle;resizable=0;points=[];autosize=1;strokeColor=none;fillColor=none;fontSize=12;" vertex="1" parent="WIyWlLk6GJQsqaUBKTNV-1">
          <mxGeometry x="295" y="1810" width="30" height="20" as="geometry" />
        </mxCell>
        <mxCell id="mOqIG3DoyQLuVPcFchnm-61" value="" style="edgeStyle=elbowEdgeStyle;elbow=horizontal;endArrow=classic;html=1;rounded=0;fontSize=12;entryX=0;entryY=0.5;entryDx=0;entryDy=0;exitX=0;exitY=0.5;exitDx=0;exitDy=0;" edge="1" parent="WIyWlLk6GJQsqaUBKTNV-1" source="mOqIG3DoyQLuVPcFchnm-49" target="mOqIG3DoyQLuVPcFchnm-41">
          <mxGeometry width="50" height="50" relative="1" as="geometry">
            <mxPoint x="380" y="1910" as="sourcePoint" />
            <mxPoint x="430" y="1860" as="targetPoint" />
            <Array as="points">
              <mxPoint x="160" y="1870" />
            </Array>
          </mxGeometry>
        </mxCell>
        <mxCell id="mOqIG3DoyQLuVPcFchnm-62" value="No" style="text;html=1;align=center;verticalAlign=middle;resizable=0;points=[];autosize=1;strokeColor=none;fillColor=none;fontSize=12;" vertex="1" parent="WIyWlLk6GJQsqaUBKTNV-1">
          <mxGeometry x="325" y="1700" width="30" height="20" as="geometry" />
        </mxCell>
        <mxCell id="mOqIG3DoyQLuVPcFchnm-82" value="COVID TRACKING SYSTEM" style="rounded=1;whiteSpace=wrap;html=1;fontSize=12;glass=0;strokeWidth=1;shadow=0;" vertex="1" parent="WIyWlLk6GJQsqaUBKTNV-1">
          <mxGeometry x="405.75" y="2280" width="120" height="40" as="geometry" />
        </mxCell>
        <mxCell id="mOqIG3DoyQLuVPcFchnm-83" value="&lt;div style=&quot;text-align: center&quot;&gt;&lt;b&gt;STATE NAME&lt;/b&gt;&lt;/div&gt;&lt;i&gt;1.Tamil Nadu&lt;br&gt;&lt;/i&gt;2.Kerala&lt;br&gt;3.Karnataka&lt;br&gt;4.Andra Pradesh&lt;br&gt;The number indicates the state name in terms of choice" style="whiteSpace=wrap;html=1;aspect=fixed;fontSize=12;align=left;" vertex="1" parent="WIyWlLk6GJQsqaUBKTNV-1">
          <mxGeometry x="395.75" y="2360" width="140" height="140" as="geometry" />
        </mxCell>
        <mxCell id="mOqIG3DoyQLuVPcFchnm-84" value="" style="shape=doubleArrow;direction=south;whiteSpace=wrap;html=1;fontSize=12;" vertex="1" parent="WIyWlLk6GJQsqaUBKTNV-1">
          <mxGeometry x="435.75" y="2320" width="60" height="40" as="geometry" />
        </mxCell>
        <mxCell id="mOqIG3DoyQLuVPcFchnm-85" value="If Choice&amp;lt;=4" style="rhombus;whiteSpace=wrap;html=1;fontSize=12;" vertex="1" parent="WIyWlLk6GJQsqaUBKTNV-1">
          <mxGeometry x="425.75" y="2520" width="80" height="80" as="geometry" />
        </mxCell>
        <mxCell id="mOqIG3DoyQLuVPcFchnm-86" value="" style="line;strokeWidth=4;direction=south;html=1;perimeter=backbonePerimeter;points=[];outlineConnect=0;fontSize=12;" vertex="1" parent="WIyWlLk6GJQsqaUBKTNV-1">
          <mxGeometry x="460.75" y="2500" width="10" height="20" as="geometry" />
        </mxCell>
        <mxCell id="mOqIG3DoyQLuVPcFchnm-87" value="" style="line;strokeWidth=2;direction=south;html=1;fontSize=12;" vertex="1" parent="WIyWlLk6GJQsqaUBKTNV-1">
          <mxGeometry x="460.75" y="2600" width="10" height="30" as="geometry" />
        </mxCell>
        <mxCell id="mOqIG3DoyQLuVPcFchnm-88" value="VACCINATED STATUS" style="whiteSpace=wrap;html=1;aspect=fixed;fontSize=12;" vertex="1" parent="WIyWlLk6GJQsqaUBKTNV-1">
          <mxGeometry x="425.75" y="2721" width="80" height="80" as="geometry" />
        </mxCell>
        <mxCell id="mOqIG3DoyQLuVPcFchnm-89" value="Yes" style="text;html=1;align=center;verticalAlign=middle;resizable=0;points=[];autosize=1;strokeColor=none;fillColor=none;fontSize=12;" vertex="1" parent="WIyWlLk6GJQsqaUBKTNV-1">
          <mxGeometry x="461.75" y="2600" width="40" height="20" as="geometry" />
        </mxCell>
        <mxCell id="mOqIG3DoyQLuVPcFchnm-90" value="Displays the First dosage count and second dosage count" style="shape=parallelogram;perimeter=parallelogramPerimeter;whiteSpace=wrap;html=1;fixedSize=1;fontSize=12;align=center;" vertex="1" parent="WIyWlLk6GJQsqaUBKTNV-1">
          <mxGeometry x="340" y="2810" width="220" height="90" as="geometry" />
        </mxCell>
        <mxCell id="mOqIG3DoyQLuVPcFchnm-91" value="Enter the valid choice" style="rounded=0;whiteSpace=wrap;html=1;fontSize=12;" vertex="1" parent="WIyWlLk6GJQsqaUBKTNV-1">
          <mxGeometry x="405.75" y="2921" width="120" height="60" as="geometry" />
        </mxCell>
        <mxCell id="mOqIG3DoyQLuVPcFchnm-92" value="If First Dose!=0" style="rhombus;whiteSpace=wrap;html=1;fontSize=12;" vertex="1" parent="WIyWlLk6GJQsqaUBKTNV-1">
          <mxGeometry x="425.75" y="2630" width="80" height="80" as="geometry" />
        </mxCell>
        <mxCell id="mOqIG3DoyQLuVPcFchnm-93" value="" style="line;strokeWidth=2;direction=south;html=1;fontSize=12;" vertex="1" parent="WIyWlLk6GJQsqaUBKTNV-1">
          <mxGeometry x="459.25" y="2801" width="10" height="10" as="geometry" />
        </mxCell>
        <mxCell id="mOqIG3DoyQLuVPcFchnm-94" value="" style="line;strokeWidth=2;direction=south;html=1;fontSize=12;" vertex="1" parent="WIyWlLk6GJQsqaUBKTNV-1">
          <mxGeometry x="463.25" y="2710" width="10" height="11" as="geometry" />
        </mxCell>
        <mxCell id="mOqIG3DoyQLuVPcFchnm-95" value="Yes" style="text;html=1;align=center;verticalAlign=middle;resizable=0;points=[];autosize=1;strokeColor=none;fillColor=none;fontSize=12;" vertex="1" parent="WIyWlLk6GJQsqaUBKTNV-1">
          <mxGeometry x="469.25" y="2701" width="40" height="20" as="geometry" />
        </mxCell>
        <mxCell id="mOqIG3DoyQLuVPcFchnm-96" value="Vaccinated Details Yet not be filled" style="rounded=0;whiteSpace=wrap;html=1;fontSize=12;" vertex="1" parent="WIyWlLk6GJQsqaUBKTNV-1">
          <mxGeometry x="404.25" y="3011" width="120" height="60" as="geometry" />
        </mxCell>
        <mxCell id="mOqIG3DoyQLuVPcFchnm-97" value="" style="edgeStyle=elbowEdgeStyle;elbow=horizontal;endArrow=classic;html=1;rounded=0;fontSize=12;entryX=0;entryY=0.5;entryDx=0;entryDy=0;exitX=0;exitY=0.25;exitDx=0;exitDy=0;" edge="1" parent="WIyWlLk6GJQsqaUBKTNV-1" source="mOqIG3DoyQLuVPcFchnm-96" target="mOqIG3DoyQLuVPcFchnm-92">
          <mxGeometry width="50" height="50" relative="1" as="geometry">
            <mxPoint x="439.25" y="2871" as="sourcePoint" />
            <mxPoint x="489.25" y="2821" as="targetPoint" />
            <Array as="points">
              <mxPoint x="309.25" y="2851" />
            </Array>
          </mxGeometry>
        </mxCell>
        <mxCell id="mOqIG3DoyQLuVPcFchnm-98" value="No" style="text;html=1;align=center;verticalAlign=middle;resizable=0;points=[];autosize=1;strokeColor=none;fillColor=none;fontSize=12;" vertex="1" parent="WIyWlLk6GJQsqaUBKTNV-1">
          <mxGeometry x="354.25" y="2651" width="30" height="20" as="geometry" />
        </mxCell>
        <mxCell id="mOqIG3DoyQLuVPcFchnm-99" value="" style="edgeStyle=elbowEdgeStyle;elbow=horizontal;endArrow=classic;html=1;rounded=0;fontSize=12;entryX=0;entryY=0.5;entryDx=0;entryDy=0;exitX=0;exitY=0.5;exitDx=0;exitDy=0;" edge="1" parent="WIyWlLk6GJQsqaUBKTNV-1" source="mOqIG3DoyQLuVPcFchnm-91" target="mOqIG3DoyQLuVPcFchnm-85">
          <mxGeometry width="50" height="50" relative="1" as="geometry">
            <mxPoint x="439.25" y="2751" as="sourcePoint" />
            <mxPoint x="489.25" y="2701" as="targetPoint" />
            <Array as="points">
              <mxPoint x="219.25" y="2711" />
            </Array>
          </mxGeometry>
        </mxCell>
        <mxCell id="mOqIG3DoyQLuVPcFchnm-100" value="No" style="text;html=1;align=center;verticalAlign=middle;resizable=0;points=[];autosize=1;strokeColor=none;fillColor=none;fontSize=12;" vertex="1" parent="WIyWlLk6GJQsqaUBKTNV-1">
          <mxGeometry x="384.25" y="2541" width="30" height="20" as="geometry" />
        </mxCell>
        <mxCell id="mOqIG3DoyQLuVPcFchnm-101" value="VACCINATED STATUS RELATED FLOW CHART" style="text;html=1;align=center;verticalAlign=middle;resizable=0;points=[];autosize=1;strokeColor=none;fillColor=none;fontSize=12;" vertex="1" parent="WIyWlLk6GJQsqaUBKTNV-1">
          <mxGeometry x="290" y="2240" width="280" height="20" as="geometry" />
        </mxCell>
      </root>
    </mxGraphModel>
  </diagram>
</mxfile>
